<mxfile host="app.diagrams.net" modified="2023-07-25T12:06:53.364Z" agent="Mozilla/5.0 (Windows NT 10.0; Win64; x64) AppleWebKit/537.36 (KHTML, like Gecko) Chrome/115.0.0.0 Safari/537.36" etag="EQwIIcL36mLgW-JOGXEZ" version="21.6.5" type="device">
  <diagram name="Страница 1" id="NqkthqRCArpsGAP3jZiJ">
    <mxGraphModel dx="1818" dy="959" grid="1" gridSize="10" guides="1" tooltips="1" connect="1" arrows="1" fold="1" page="1" pageScale="1" pageWidth="827" pageHeight="1169" math="0" shadow="0">
      <root>
        <mxCell id="0" />
        <mxCell id="1" parent="0" />
        <mxCell id="Qd10aVgI9uQznu9LgIMP-8" style="edgeStyle=orthogonalEdgeStyle;rounded=0;orthogonalLoop=1;jettySize=auto;html=1;entryX=0.5;entryY=0;entryDx=0;entryDy=0;" edge="1" parent="1" source="Qd10aVgI9uQznu9LgIMP-1" target="Qd10aVgI9uQznu9LgIMP-2">
          <mxGeometry relative="1" as="geometry" />
        </mxCell>
        <mxCell id="Qd10aVgI9uQznu9LgIMP-1" value="1" style="ellipse;whiteSpace=wrap;html=1;" vertex="1" parent="1">
          <mxGeometry x="362.25" y="10" width="120" height="70" as="geometry" />
        </mxCell>
        <mxCell id="Qd10aVgI9uQznu9LgIMP-10" style="edgeStyle=orthogonalEdgeStyle;rounded=0;orthogonalLoop=1;jettySize=auto;html=1;entryX=0.5;entryY=0;entryDx=0;entryDy=0;" edge="1" parent="1" source="Qd10aVgI9uQznu9LgIMP-2" target="Qd10aVgI9uQznu9LgIMP-5">
          <mxGeometry relative="1" as="geometry" />
        </mxCell>
        <mxCell id="Qd10aVgI9uQznu9LgIMP-2" value="string[]array" style="shape=parallelogram;perimeter=parallelogramPerimeter;whiteSpace=wrap;html=1;fixedSize=1;" vertex="1" parent="1">
          <mxGeometry x="342.25" y="100" width="160" height="80" as="geometry" />
        </mxCell>
        <mxCell id="Qd10aVgI9uQznu9LgIMP-20" style="edgeStyle=orthogonalEdgeStyle;rounded=0;orthogonalLoop=1;jettySize=auto;html=1;exitX=0.5;exitY=1;exitDx=0;exitDy=0;entryX=0.5;entryY=0;entryDx=0;entryDy=0;" edge="1" parent="1" source="Qd10aVgI9uQznu9LgIMP-4" target="Qd10aVgI9uQznu9LgIMP-23">
          <mxGeometry relative="1" as="geometry">
            <mxPoint x="422.25" y="640" as="targetPoint" />
          </mxGeometry>
        </mxCell>
        <mxCell id="Qd10aVgI9uQznu9LgIMP-26" value="Yes" style="edgeStyle=orthogonalEdgeStyle;rounded=0;orthogonalLoop=1;jettySize=auto;html=1;exitX=0;exitY=0.5;exitDx=0;exitDy=0;" edge="1" parent="1" source="Qd10aVgI9uQznu9LgIMP-4">
          <mxGeometry relative="1" as="geometry">
            <mxPoint x="100" y="540" as="targetPoint" />
          </mxGeometry>
        </mxCell>
        <mxCell id="Qd10aVgI9uQznu9LgIMP-4" value="value.Length&amp;gt;3?&lt;br&gt;" style="rhombus;whiteSpace=wrap;html=1;" vertex="1" parent="1">
          <mxGeometry x="327.25" y="490" width="190" height="100" as="geometry" />
        </mxCell>
        <mxCell id="Qd10aVgI9uQznu9LgIMP-18" style="edgeStyle=orthogonalEdgeStyle;rounded=0;orthogonalLoop=1;jettySize=auto;html=1;exitX=0.5;exitY=1;exitDx=0;exitDy=0;entryX=0.5;entryY=0;entryDx=0;entryDy=0;" edge="1" parent="1" source="Qd10aVgI9uQznu9LgIMP-5" target="Qd10aVgI9uQznu9LgIMP-14">
          <mxGeometry relative="1" as="geometry">
            <mxPoint x="420" y="300" as="targetPoint" />
          </mxGeometry>
        </mxCell>
        <mxCell id="Qd10aVgI9uQznu9LgIMP-5" value="int size=0&lt;br&gt;" style="rounded=0;whiteSpace=wrap;html=1;" vertex="1" parent="1">
          <mxGeometry x="362.25" y="210" width="120" height="60" as="geometry" />
        </mxCell>
        <mxCell id="Qd10aVgI9uQznu9LgIMP-13" style="edgeStyle=orthogonalEdgeStyle;rounded=0;orthogonalLoop=1;jettySize=auto;html=1;" edge="1" parent="1">
          <mxGeometry relative="1" as="geometry">
            <mxPoint x="421" y="340.58004640371223" as="targetPoint" />
            <mxPoint x="362.25" y="780" as="sourcePoint" />
            <Array as="points">
              <mxPoint x="100" y="780" />
              <mxPoint x="100" y="320" />
              <mxPoint x="421" y="320" />
            </Array>
          </mxGeometry>
        </mxCell>
        <mxCell id="Qd10aVgI9uQznu9LgIMP-7" value="End" style="ellipse;whiteSpace=wrap;html=1;" vertex="1" parent="1">
          <mxGeometry x="630" y="360" width="120" height="80" as="geometry" />
        </mxCell>
        <mxCell id="Qd10aVgI9uQznu9LgIMP-15" value="Yes" style="edgeStyle=orthogonalEdgeStyle;rounded=0;orthogonalLoop=1;jettySize=auto;html=1;entryX=0;entryY=0.5;entryDx=0;entryDy=0;" edge="1" parent="1" source="Qd10aVgI9uQznu9LgIMP-14" target="Qd10aVgI9uQznu9LgIMP-7">
          <mxGeometry relative="1" as="geometry">
            <mxPoint x="610" y="400" as="targetPoint" />
            <Array as="points" />
          </mxGeometry>
        </mxCell>
        <mxCell id="Qd10aVgI9uQznu9LgIMP-17" value="No" style="edgeStyle=orthogonalEdgeStyle;rounded=0;orthogonalLoop=1;jettySize=auto;html=1;exitX=0.5;exitY=1;exitDx=0;exitDy=0;entryX=0.5;entryY=0;entryDx=0;entryDy=0;" edge="1" parent="1" source="Qd10aVgI9uQznu9LgIMP-14" target="Qd10aVgI9uQznu9LgIMP-4">
          <mxGeometry relative="1" as="geometry" />
        </mxCell>
        <mxCell id="Qd10aVgI9uQznu9LgIMP-14" value="size&amp;gt;array.Length?" style="rhombus;whiteSpace=wrap;html=1;" vertex="1" parent="1">
          <mxGeometry x="314.5" y="350" width="215.5" height="100" as="geometry" />
        </mxCell>
        <mxCell id="Qd10aVgI9uQznu9LgIMP-21" style="edgeStyle=orthogonalEdgeStyle;rounded=0;orthogonalLoop=1;jettySize=auto;html=1;entryX=0.5;entryY=0;entryDx=0;entryDy=0;" edge="1" parent="1">
          <mxGeometry relative="1" as="geometry">
            <mxPoint x="422.25" y="700" as="sourcePoint" />
            <mxPoint x="422.25" y="750" as="targetPoint" />
          </mxGeometry>
        </mxCell>
        <mxCell id="Qd10aVgI9uQznu9LgIMP-23" value="Print array[size]" style="shape=document;whiteSpace=wrap;html=1;boundedLbl=1;" vertex="1" parent="1">
          <mxGeometry x="362.25" y="630" width="120" height="80" as="geometry" />
        </mxCell>
        <mxCell id="Qd10aVgI9uQznu9LgIMP-24" value="&lt;span style=&quot;color: rgb(0, 0, 0); font-family: Helvetica; font-size: 12px; font-style: normal; font-variant-ligatures: normal; font-variant-caps: normal; font-weight: 400; letter-spacing: normal; orphans: 2; text-align: center; text-indent: 0px; text-transform: none; widows: 2; word-spacing: 0px; -webkit-text-stroke-width: 0px; background-color: rgb(251, 251, 251); text-decoration-thickness: initial; text-decoration-style: initial; text-decoration-color: initial; float: none; display: inline !important;&quot;&gt;size++&lt;/span&gt;" style="rounded=0;whiteSpace=wrap;html=1;" vertex="1" parent="1">
          <mxGeometry x="362.25" y="750" width="120" height="60" as="geometry" />
        </mxCell>
      </root>
    </mxGraphModel>
  </diagram>
</mxfile>
